<?xml version="1.0" encoding="UTF-8"?><svg xmlns="http://www.w3.org/2000/svg" xmlns:xlink="http://www.w3.org/1999/xlink" data-name="Layer 1" height="54.2" preserveAspectRatio="xMidYMid meet" version="1.0" viewBox="-0.1 -2.4 362.9 54.2" width="362.9" zoomAndPan="magnify"><g id="change1_1"><path d="M69,237.32A24.91,24.91,0,1,1,93.91,262,24.79,24.79,0,0,1,69,237.32" fill="#231f20" transform="translate(-69 -212.65)"/></g><g id="change1_2"><path d="M197,237.32a24.91,24.91,0,1,1-24.91-24.67A24.79,24.79,0,0,1,197,237.32Z" fill="#231f20" transform="translate(-69 -212.65)"/></g><g id="change1_3"><path d="M275.26,237.32a24.91,24.91,0,1,1-24.91-24.67A24.79,24.79,0,0,1,275.26,237.32Z" fill="#231f20" transform="translate(-69 -212.65)"/></g><g id="change1_4"><path d="M353.49,237.32a24.91,24.91,0,1,1-24.91-24.67A24.8,24.8,0,0,1,353.49,237.32Z" fill="#231f20" transform="translate(-69 -212.65)"/></g><g id="change1_5"><path d="M431.71,237.32a24.91,24.91,0,1,1-24.91-24.67A24.79,24.79,0,0,1,431.71,237.32Z" fill="#231f20" transform="translate(-69 -212.65)"/></g></svg>